<?xml version="1.0" encoding="UTF-8"?>
<svg width="752pt" height="752pt" version="1.1" viewBox="0 0 752 752" xmlns="http://www.w3.org/2000/svg">
 <defs>
  <clipPath id="d">
   <path d="m357 492h38v120.79h-38z"/>
  </clipPath>
  <clipPath id="c">
   <path d="m357 139.21h38v120.79h-38z"/>
  </clipPath>
  <clipPath id="b">
   <path d="m139.21 357h120.79v38h-120.79z"/>
  </clipPath>
  <clipPath id="a">
   <path d="m492 357h120.79v38h-120.79z"/>
  </clipPath>
 </defs>
 <g clip-path="url(#d)">
  <path d="m394.42 594.46c0 10.125-8.207 18.332-18.332 18.332h-0.17578c-10.125 0-18.332-8.207-18.332-18.332v-83.535c0-10.129 8.207-18.332 18.332-18.332h0.17578c10.125 0 18.332 8.2031 18.332 18.332z"/>
 </g>
 <g clip-path="url(#c)">
  <path d="m394.42 241.08c0 10.125-8.207 18.332-18.332 18.332h-0.17578c-10.125 0-18.332-8.207-18.332-18.332v-83.539c-0.003906-10.125 8.207-18.332 18.328-18.332h0.17578c10.125 0 18.332 8.207 18.332 18.332v83.539z"/>
 </g>
 <g clip-path="url(#b)">
  <path d="m157.54 394.42c-10.125 0-18.332-8.2109-18.332-18.332v-0.17578c0-10.125 8.207-18.332 18.332-18.332h83.535c10.125 0 18.332 8.207 18.332 18.332v0.17578c0 10.125-8.207 18.332-18.332 18.332z"/>
 </g>
 <g clip-path="url(#a)">
  <path d="m510.92 394.42c-10.125 0-18.328-8.207-18.328-18.332v-0.17578c0-10.125 8.2031-18.332 18.328-18.332h83.539c10.125 0 18.332 8.207 18.332 18.332v0.17578c0 10.125-8.207 18.332-18.332 18.332z"/>
 </g>
 <path d="m501.19 555.98c5.0586 8.7695 2.0586 19.984-6.7109 25.043l-0.15234 0.089843c-8.7695 5.0625-19.984 2.0586-25.043-6.7109l-41.766-72.34c-5.0625-8.7695-2.0664-19.98 6.7109-25.043l0.15234-0.089843c8.7656-5.0625 19.98-2.0586 25.043 6.7109z"/>
 <path d="m324.5 249.95c5.0625 8.7695 2.0547 19.98-6.7109 25.043l-0.15234 0.089843c-8.7695 5.0625-19.98 2.0586-25.043-6.7109l-41.766-72.344c-5.0625-8.7695-2.0586-19.98 6.7109-25.043l0.15234-0.085937c8.7695-5.0625 19.98-2.0586 25.043 6.7109z"/>
 <path d="m196.02 501.18c-8.7695 5.0625-19.98 2.0586-25.043-6.7109l-0.085938-0.15234c-5.0625-8.7695-2.0586-19.984 6.7109-25.043l72.344-41.766c8.7695-5.0625 19.98-2.0664 25.043 6.7109l0.089843 0.15234c5.0625 8.7656 2.0586 19.977-6.7109 25.039z"/>
 <path d="m502.05 324.5c-8.7695 5.0625-19.977 2.0586-25.039-6.7109l-0.089844-0.15234c-5.0625-8.7695-2.0664-19.98 6.7109-25.043l72.34-41.77c8.7695-5.0625 19.984-2.0586 25.043 6.7109l0.09375 0.15234c5.0586 8.7695 2.0547 19.98-6.7148 25.043z"/>
 <path d="m574.4 469.28c8.7695 5.0586 11.773 16.277 6.7109 25.043l-0.089843 0.15234c-5.0586 8.7656-16.277 11.77-25.043 6.7109l-72.34-41.766c-8.7695-5.0625-11.773-16.277-6.7109-25.043l0.085937-0.15625c5.0625-8.7695 16.281-11.77 25.047-6.707z"/>
 <path d="m268.37 292.59c8.7656 5.0625 11.77 16.277 6.7109 25.043l-0.089844 0.15234c-5.0625 8.7695-16.273 11.773-25.043 6.7109l-72.344-41.77c-8.7695-5.0625-11.773-16.273-6.7109-25.043l0.089844-0.15234c5.0625-8.7695 16.273-11.773 25.043-6.7109z"/>
 <path d="m282.72 574.4c-5.0586 8.7695-16.273 11.773-25.043 6.7148l-0.14844-0.09375c-8.7695-5.0586-11.773-16.277-6.7109-25.039l41.766-72.344c5.0625-8.7695 16.277-11.773 25.043-6.7109l0.15234 0.089843c8.7695 5.0625 11.773 16.277 6.7109 25.039z"/>
 <path d="m459.41 268.37c-5.0625 8.7695-16.277 11.77-25.043 6.7109l-0.14844-0.089844c-8.7773-5.0625-11.777-16.273-6.7109-25.043l41.762-72.344c5.0625-8.7695 16.281-11.773 25.043-6.7109l0.15625 0.085937c8.7656 5.0625 11.77 16.277 6.707 25.043z"/>
</svg>
